<svg width="261" height="105" viewBox="0 0 261 105" fill="none" xmlns="http://www.w3.org/2000/svg">
<path fill-rule="evenodd" clip-rule="evenodd" d="M213.53 0.067688C212.149 0.067688 211.03 1.18698 211.03 2.56769C211.03 3.9484 212.149 5.06769 213.53 5.06769H213.88V10.9217H205C200.582 10.9217 197 14.5034 197 18.9217V63.0705C197 67.4888 200.582 71.0705 205 71.0705H207.04V73.2981C207.04 74.6788 208.159 75.7981 209.54 75.7981C210.921 75.7981 212.04 74.6788 212.04 73.2981V71.0705H238.96V73.2981C238.96 74.6788 240.079 75.7981 241.46 75.7981C242.841 75.7981 243.96 74.6788 243.96 73.2981V71.0705H246C250.418 71.0705 254 67.4888 254 63.0705V18.9217C254 14.5034 250.418 10.9217 246 10.9217H235.98V5.06769H236.33C237.711 5.06769 238.83 3.9484 238.83 2.56769C238.83 1.18698 237.711 0.067688 236.33 0.067688H213.53ZM230.98 5.06769H218.88V10.9217H230.98V5.06769Z" fill="white"/>
<path d="M22.6012 27.7679V21.1415H57.4165V27.7679H43.9293V64.7779H36.0884V27.7679H22.6012ZM60.3888 64.7779V32.0506H67.8675V37.5051H68.2085C68.805 35.6159 69.8278 34.16 71.2766 33.1372C72.7397 32.1003 74.4087 31.5818 76.2837 31.5818C76.7099 31.5818 77.1857 31.6031 77.7113 31.6458C78.2511 31.6742 78.6985 31.7239 79.0536 31.7949V38.8901C78.7269 38.7764 78.2085 38.677 77.4982 38.5918C76.8022 38.4924 76.1275 38.4426 75.4741 38.4426C74.0678 38.4426 72.8036 38.748 71.6815 39.3588C70.5735 39.9554 69.6999 40.7864 69.0607 41.8517C68.4215 42.9171 68.1019 44.1458 68.1019 45.5378V64.7779H60.3888ZM93.0096 65.4384C90.9357 65.4384 89.0678 65.0691 87.4059 64.3304C85.7582 63.5776 84.4513 62.4696 83.4854 61.0066C82.5337 59.5435 82.0579 57.7395 82.0579 55.5946C82.0579 53.748 82.3988 52.221 83.0806 51.0137C83.7624 49.8063 84.6928 48.8404 85.8718 48.1159C87.0508 47.3915 88.3789 46.8446 89.8562 46.4753C91.3477 46.0918 92.8888 45.8148 94.4798 45.6443C96.3974 45.4455 97.9528 45.2679 99.146 45.1117C100.339 44.9412 101.206 44.6855 101.745 44.3446C102.299 43.9895 102.576 43.4426 102.576 42.704V42.5762C102.576 40.971 102.1 39.7281 101.149 38.8475C100.197 37.9668 98.8263 37.5264 97.0366 37.5264C95.1474 37.5264 93.6488 37.9384 92.5408 38.7622C91.4471 39.5861 90.7085 40.5591 90.3249 41.6813L83.1232 40.6585C83.6914 38.6699 84.6289 37.008 85.9357 35.6727C87.2425 34.3233 88.8406 33.3148 90.7298 32.6472C92.619 31.9654 94.707 31.6245 96.994 31.6245C98.5707 31.6245 100.14 31.8091 101.703 32.1784C103.265 32.5477 104.693 33.1585 105.985 34.0108C107.278 34.8489 108.315 35.9924 109.096 37.4412C109.892 38.8901 110.289 40.7012 110.289 42.8745V64.7779H102.875V60.2821H102.619C102.15 61.1912 101.49 62.0435 100.637 62.8389C99.7994 63.6202 98.7411 64.2523 97.4627 64.7352C96.1985 65.204 94.7141 65.4384 93.0096 65.4384ZM95.0124 59.7708C96.5607 59.7708 97.9031 59.4654 99.0394 58.8546C100.176 58.2296 101.049 57.4057 101.66 56.383C102.285 55.3602 102.598 54.2452 102.598 53.0378V49.1813C102.356 49.3801 101.944 49.5648 101.362 49.7352C100.794 49.9057 100.154 50.0549 99.4442 50.1827C98.734 50.3105 98.0309 50.4242 97.3349 50.5236C96.6388 50.623 96.0352 50.7083 95.5238 50.7793C94.3732 50.9355 93.3434 51.1912 92.4343 51.5463C91.5252 51.9014 90.8079 52.3986 90.2823 53.0378C89.7567 53.6628 89.494 54.4725 89.494 55.4668C89.494 56.8872 90.0124 57.9597 91.0494 58.6841C92.0863 59.4085 93.4073 59.7708 95.0124 59.7708ZM146.106 32.0506L134.451 64.7779H125.929L114.274 32.0506H122.498L130.02 56.3617H130.36L137.903 32.0506H146.106ZM164.819 65.4171C161.538 65.4171 158.704 64.7352 156.317 63.3716C153.945 61.9938 152.12 60.0477 150.842 57.5335C149.563 55.0051 148.924 52.0293 148.924 48.606C148.924 45.2395 149.563 42.285 150.842 39.7424C152.134 37.1855 153.938 35.1969 156.254 33.7764C158.569 32.3418 161.289 31.6245 164.414 31.6245C166.431 31.6245 168.335 31.9512 170.124 32.6046C171.928 33.2438 173.519 34.2381 174.897 35.5875C176.289 36.937 177.383 38.6557 178.178 40.7438C178.974 42.8176 179.371 45.2892 179.371 48.1585V50.5236H152.546V45.3247H171.978C171.964 43.8475 171.644 42.5335 171.019 41.383C170.394 40.2182 169.521 39.302 168.398 38.6344C167.29 37.9668 165.998 37.633 164.521 37.633C162.944 37.633 161.559 38.0165 160.366 38.7835C159.173 39.5364 158.242 40.5307 157.575 41.7665C156.921 42.9881 156.587 44.3304 156.573 45.7935V50.3318C156.573 52.2352 156.921 53.8688 157.617 55.2324C158.313 56.5818 159.286 57.6188 160.536 58.3432C161.786 59.0534 163.249 59.4085 164.925 59.4085C166.048 59.4085 167.063 59.2523 167.972 58.9398C168.881 58.6131 169.67 58.1372 170.337 57.5122C171.005 56.8872 171.509 56.1131 171.85 55.1898L179.052 55.9995C178.597 57.9029 177.731 59.5648 176.452 60.9852C175.188 62.3915 173.569 63.4852 171.594 64.2665C169.62 65.0335 167.362 65.4171 164.819 65.4171ZM193.61 21.1415V64.7779H185.897V21.1415H193.61Z" fill="white"/>
<path d="M201.541 64.7779V32.0506H209.254V64.7779H201.541ZM205.419 27.4057C204.197 27.4057 203.146 27.0009 202.266 26.1912C201.385 25.3673 200.945 24.3801 200.945 23.2296C200.945 22.0648 201.385 21.0776 202.266 20.2679C203.146 19.4441 204.197 19.0321 205.419 19.0321C206.655 19.0321 207.706 19.4441 208.572 20.2679C209.453 21.0776 209.893 22.0648 209.893 23.2296C209.893 24.3801 209.453 25.3673 208.572 26.1912C207.706 27.0009 206.655 27.4057 205.419 27.4057ZM224.899 45.6017V64.7779H217.186V32.0506H224.558V37.6117H224.941C225.694 35.7793 226.895 34.3233 228.542 33.2438C230.204 32.1642 232.257 31.6245 234.7 31.6245C236.958 31.6245 238.926 32.1074 240.602 33.0733C242.292 34.0392 243.599 35.4384 244.522 37.2708C245.46 39.1031 245.922 41.3262 245.907 43.9398V64.7779H238.194V45.133C238.194 42.9455 237.626 41.2338 236.49 39.998C235.368 38.7622 233.812 38.1443 231.824 38.1443C230.474 38.1443 229.274 38.4426 228.223 39.0392C227.186 39.6216 226.369 40.4668 225.772 41.5747C225.19 42.6827 224.899 44.025 224.899 45.6017Z" fill="#336749"/>
<path d="M0.407759 91.5961H1.81969L4.64355 96.3489H4.76287L7.58674 91.5961H8.99867L5.31969 97.5819V101.778H4.08674V97.5819L0.407759 91.5961ZM12.4564 101.937C11.767 101.937 11.1621 101.773 10.6418 101.445C10.1247 101.117 9.72038 100.658 9.42871 100.068C9.14036 99.4777 8.99618 98.7883 8.99618 97.9995C8.99618 97.204 9.14036 96.5096 9.42871 95.9164C9.72038 95.3231 10.1247 94.8624 10.6418 94.5343C11.1621 94.2061 11.767 94.0421 12.4564 94.0421C13.1458 94.0421 13.749 94.2061 14.2661 94.5343C14.7864 94.8624 15.1908 95.3231 15.4791 95.9164C15.7708 96.5096 15.9166 97.204 15.9166 97.9995C15.9166 98.7883 15.7708 99.4777 15.4791 100.068C15.1908 100.658 14.7864 101.117 14.2661 101.445C13.749 101.773 13.1458 101.937 12.4564 101.937ZM12.4564 100.883C12.9801 100.883 13.411 100.749 13.749 100.48C14.0871 100.212 14.3373 99.8588 14.4997 99.4213C14.6621 98.9838 14.7433 98.5099 14.7433 97.9995C14.7433 97.4891 14.6621 97.0134 14.4997 96.5726C14.3373 96.1318 14.0871 95.7755 13.749 95.5037C13.411 95.2319 12.9801 95.0961 12.4564 95.0961C11.9327 95.0961 11.5019 95.2319 11.1638 95.5037C10.8257 95.7755 10.5755 96.1318 10.4131 96.5726C10.2507 97.0134 10.1695 97.4891 10.1695 97.9995C10.1695 98.5099 10.2507 98.9838 10.4131 99.4213C10.5755 99.8588 10.8257 100.212 11.1638 100.48C11.5019 100.749 11.9327 100.883 12.4564 100.883ZM22.5202 98.6557V94.1415H23.6934V101.778H22.5202V100.485H22.4406C22.2616 100.873 21.9832 101.203 21.6054 101.475C21.2275 101.743 20.7503 101.877 20.1736 101.877C19.6963 101.877 19.272 101.773 18.9008 101.564C18.5296 101.352 18.238 101.034 18.0258 100.61C17.8137 100.182 17.7077 99.6434 17.7077 98.9938V94.1415H18.8809V98.9142C18.8809 99.4711 19.0367 99.9152 19.3483 100.247C19.6631 100.578 20.0642 100.744 20.5514 100.744C20.8431 100.744 21.1397 100.669 21.4413 100.52C21.7462 100.371 22.0015 100.142 22.2069 99.834C22.4157 99.5257 22.5202 99.133 22.5202 98.6557ZM25.8424 101.778V94.1415H26.9759V95.2949H27.0555C27.1947 94.9171 27.4466 94.6105 27.8112 94.3752C28.1758 94.1399 28.5867 94.0222 29.0441 94.0222C29.1303 94.0222 29.238 94.0239 29.3673 94.0272C29.4965 94.0305 29.5943 94.0355 29.6606 94.0421V95.2353C29.6208 95.2253 29.5297 95.2104 29.3872 95.1905C29.248 95.1673 29.1005 95.1557 28.9447 95.1557C28.5735 95.1557 28.242 95.2336 27.9504 95.3894C27.662 95.5418 27.4333 95.754 27.2643 96.0257C27.0986 96.2942 27.0157 96.6008 27.0157 96.9455V101.778H25.8424ZM35.148 101.778V91.5961H38.5883C39.3871 91.5961 40.04 91.7402 40.5471 92.0286C41.0576 92.3136 41.4354 92.6998 41.6807 93.187C41.9259 93.6742 42.0486 94.2177 42.0486 94.8177C42.0486 95.4176 41.9259 95.9628 41.6807 96.4533C41.4387 96.9438 41.0642 97.3349 40.5571 97.6266C40.05 97.915 39.4004 98.0591 38.6082 98.0591H36.1423V96.9654H38.5684C39.1153 96.9654 39.5545 96.8709 39.8859 96.682C40.2174 96.4931 40.4577 96.2379 40.6068 95.9164C40.7593 95.5916 40.8355 95.2253 40.8355 94.8177C40.8355 94.41 40.7593 94.0454 40.6068 93.7239C40.4577 93.4024 40.2157 93.1505 39.8809 92.9682C39.5462 92.7826 39.1021 92.6898 38.5486 92.6898H36.3809V101.778H35.148ZM46.1228 101.957C45.6389 101.957 45.1997 101.866 44.8053 101.683C44.4109 101.498 44.0977 101.231 43.8657 100.883C43.6337 100.532 43.5177 100.107 43.5177 99.6103C43.5177 99.1728 43.6038 98.8181 43.7762 98.5463C43.9485 98.2712 44.1789 98.0558 44.4672 97.9C44.7556 97.7443 45.0738 97.6283 45.4218 97.552C45.7731 97.4725 46.1261 97.4095 46.4807 97.3631C46.9448 97.3034 47.3209 97.2587 47.6093 97.2289C47.901 97.1957 48.1131 97.141 48.2456 97.0648C48.3815 96.9886 48.4495 96.856 48.4495 96.6671V96.6273C48.4495 96.1368 48.3153 95.7556 48.0468 95.4838C47.7816 95.2121 47.3789 95.0762 46.8387 95.0762C46.2786 95.0762 45.8394 95.1988 45.5212 95.4441C45.203 95.6893 44.9793 95.9512 44.8501 96.2296L43.7364 95.8319C43.9353 95.3678 44.2004 95.0066 44.5319 94.748C44.8666 94.4862 45.2312 94.3039 45.6256 94.2012C46.0233 94.0951 46.4144 94.0421 46.7989 94.0421C47.0442 94.0421 47.3259 94.0719 47.6441 94.1316C47.9656 94.1879 48.2755 94.3056 48.5738 94.4846C48.8754 94.6635 49.1256 94.9337 49.3245 95.2949C49.5233 95.6562 49.6228 96.1401 49.6228 96.7466V101.778H48.4495V100.744H48.3898C48.3103 100.91 48.1777 101.087 47.9921 101.276C47.8065 101.465 47.5596 101.625 47.2513 101.758C46.9431 101.891 46.5669 101.957 46.1228 101.957ZM46.3018 100.903C46.7658 100.903 47.1569 100.812 47.4751 100.629C47.7965 100.447 48.0385 100.212 48.2009 99.9235C48.3666 99.6351 48.4495 99.3319 48.4495 99.0137V97.9398C48.3998 97.9995 48.2904 98.0542 48.1214 98.1039C47.9556 98.1503 47.7634 98.1917 47.5447 98.2282C47.3292 98.2613 47.1188 98.2911 46.9133 98.3177C46.7111 98.3409 46.547 98.3607 46.4211 98.3773C46.1162 98.4171 45.8311 98.4817 45.566 98.5712C45.3041 98.6574 45.092 98.7883 44.9296 98.964C44.7705 99.1363 44.691 99.3716 44.691 99.6699C44.691 100.078 44.8418 100.386 45.1434 100.595C45.4483 100.8 45.8344 100.903 46.3018 100.903ZM57.1734 95.8517L56.1194 96.15C56.0531 95.9744 55.9553 95.8037 55.8261 95.638C55.7001 95.4689 55.5278 95.3297 55.309 95.2203C55.0903 95.111 54.8102 95.0563 54.4688 95.0563C54.0015 95.0563 53.6121 95.164 53.3005 95.3794C52.9923 95.5916 52.8382 95.8617 52.8382 96.1898C52.8382 96.4815 52.9442 96.7118 53.1563 96.8809C53.3685 97.0499 53.6999 97.1908 54.1507 97.3034L55.2842 97.5819C55.9669 97.7476 56.4757 98.0011 56.8105 98.3425C57.1452 98.6806 57.3126 99.1164 57.3126 99.65C57.3126 100.088 57.1866 100.479 56.9347 100.823C56.6862 101.168 56.3382 101.44 55.8907 101.639C55.4433 101.838 54.9229 101.937 54.3296 101.937C53.5508 101.937 52.9061 101.768 52.3957 101.43C51.8853 101.092 51.5621 100.598 51.4262 99.9483L52.5399 99.6699C52.6459 100.081 52.8464 100.389 53.1414 100.595C53.4397 100.8 53.8292 100.903 54.3097 100.903C54.8566 100.903 55.2908 100.787 55.6123 100.555C55.9371 100.32 56.0995 100.038 56.0995 99.7097C56.0995 99.4445 56.0067 99.2225 55.8211 99.0435C55.6355 98.8612 55.3505 98.7253 54.966 98.6358L53.6933 98.3375C52.9939 98.1718 52.4802 97.915 52.1521 97.5669C51.8273 97.2156 51.6649 96.7765 51.6649 96.2495C51.6649 95.8186 51.7858 95.4374 52.0278 95.106C52.2731 94.7746 52.6061 94.5144 53.0271 94.3255C53.4513 94.1365 53.9319 94.0421 54.4688 94.0421C55.2245 94.0421 55.8178 94.2078 56.2487 94.5392C56.6829 94.8707 56.9911 95.3082 57.1734 95.8517ZM64.4878 95.8517L63.4339 96.15C63.3676 95.9744 63.2698 95.8037 63.1405 95.638C63.0146 95.4689 62.8422 95.3297 62.6235 95.2203C62.4047 95.111 62.1247 95.0563 61.7833 95.0563C61.316 95.0563 60.9265 95.164 60.615 95.3794C60.3067 95.5916 60.1526 95.8617 60.1526 96.1898C60.1526 96.4815 60.2587 96.7118 60.4708 96.8809C60.6829 97.0499 61.0144 97.1908 61.4651 97.3034L62.5986 97.5819C63.2814 97.7476 63.7902 98.0011 64.1249 98.3425C64.4597 98.6806 64.627 99.1164 64.627 99.65C64.627 100.088 64.5011 100.479 64.2492 100.823C64.0006 101.168 63.6526 101.44 63.2052 101.639C62.7577 101.838 62.2374 101.937 61.6441 101.937C60.8652 101.937 60.2206 101.768 59.7101 101.43C59.1997 101.092 58.8766 100.598 58.7407 99.9483L59.8543 99.6699C59.9604 100.081 60.1609 100.389 60.4559 100.595C60.7542 100.8 61.1436 100.903 61.6242 100.903C62.1711 100.903 62.6053 100.787 62.9268 100.555C63.2516 100.32 63.414 100.038 63.414 99.7097C63.414 99.4445 63.3212 99.2225 63.1356 99.0435C62.95 98.8612 62.6649 98.7253 62.2805 98.6358L61.0077 98.3375C60.3084 98.1718 59.7947 97.915 59.4665 97.5669C59.1417 97.2156 58.9793 96.7765 58.9793 96.2495C58.9793 95.8186 59.1003 95.4374 59.3422 95.106C59.5875 94.7746 59.9206 94.5144 60.3415 94.3255C60.7658 94.1365 61.2464 94.0421 61.7833 94.0421C62.539 94.0421 63.1323 94.2078 63.5631 94.5392C63.9973 94.8707 64.3055 95.3082 64.4878 95.8517ZM66.3932 104.642V94.1415H67.5267V95.3546H67.6659C67.7521 95.222 67.8714 95.053 68.0239 94.8475C68.1797 94.6387 68.4017 94.4531 68.6901 94.2907C68.9817 94.1249 69.3762 94.0421 69.8733 94.0421C70.5163 94.0421 71.0831 94.2028 71.5736 94.5243C72.0641 94.8458 72.4469 95.3016 72.722 95.8915C72.9971 96.4815 73.1347 97.1775 73.1347 97.9796C73.1347 98.7883 72.9971 99.4893 72.722 100.083C72.4469 100.673 72.0658 101.13 71.5786 101.455C71.0914 101.776 70.5296 101.937 69.8932 101.937C69.4027 101.937 69.0099 101.856 68.7149 101.693C68.42 101.528 68.1929 101.34 68.0338 101.132C67.8747 100.919 67.7521 100.744 67.6659 100.605H67.5665V104.642H66.3932ZM67.5466 97.9597C67.5466 98.5364 67.6311 99.0452 67.8002 99.486C67.9692 99.9235 68.2161 100.267 68.5409 100.515C68.8657 100.76 69.2635 100.883 69.7341 100.883C70.2246 100.883 70.634 100.754 70.9621 100.495C71.2935 100.233 71.5421 99.882 71.7078 99.4412C71.8769 98.9971 71.9614 98.5033 71.9614 97.9597C71.9614 97.4228 71.8785 96.9389 71.7128 96.508C71.5504 96.0738 71.3035 95.7308 70.972 95.4789C70.6439 95.2237 70.2313 95.0961 69.7341 95.0961C69.2568 95.0961 68.8558 95.217 68.531 95.459C68.2062 95.6976 67.9609 96.0324 67.7952 96.4632C67.6295 96.8908 67.5466 97.3896 67.5466 97.9597ZM78.0267 101.937C77.3373 101.937 76.7325 101.773 76.2121 101.445C75.695 101.117 75.2907 100.658 74.999 100.068C74.7107 99.4777 74.5665 98.7883 74.5665 97.9995C74.5665 97.204 74.7107 96.5096 74.999 95.9164C75.2907 95.3231 75.695 94.8624 76.2121 94.5343C76.7325 94.2061 77.3373 94.0421 78.0267 94.0421C78.7161 94.0421 79.3193 94.2061 79.8364 94.5343C80.3567 94.8624 80.7611 95.3231 81.0494 95.9164C81.3411 96.5096 81.4869 97.204 81.4869 97.9995C81.4869 98.7883 81.3411 99.4777 81.0494 100.068C80.7611 100.658 80.3567 101.117 79.8364 101.445C79.3193 101.773 78.7161 101.937 78.0267 101.937ZM78.0267 100.883C78.5504 100.883 78.9813 100.749 79.3193 100.48C79.6574 100.212 79.9076 99.8588 80.07 99.4213C80.2325 98.9838 80.3137 98.5099 80.3137 97.9995C80.3137 97.4891 80.2325 97.0134 80.07 96.5726C79.9076 96.1318 79.6574 95.7755 79.3193 95.5037C78.9813 95.2319 78.5504 95.0961 78.0267 95.0961C77.503 95.0961 77.0722 95.2319 76.7341 95.5037C76.396 95.7755 76.1458 96.1318 75.9834 96.5726C75.821 97.0134 75.7398 97.4891 75.7398 97.9995C75.7398 98.5099 75.821 98.9838 75.9834 99.4213C76.1458 99.8588 76.396 100.212 76.7341 100.48C77.0722 100.749 77.503 100.883 78.0267 100.883ZM83.278 101.778V94.1415H84.4115V95.2949H84.491C84.6302 94.9171 84.8821 94.6105 85.2467 94.3752C85.6113 94.1399 86.0223 94.0222 86.4797 94.0222C86.5658 94.0222 86.6736 94.0239 86.8028 94.0272C86.9321 94.0305 87.0299 94.0355 87.0961 94.0421V95.2353C87.0564 95.2253 86.9652 95.2104 86.8227 95.1905C86.6835 95.1673 86.536 95.1557 86.3802 95.1557C86.009 95.1557 85.6776 95.2336 85.3859 95.3894C85.0976 95.5418 84.8689 95.754 84.6998 96.0257C84.5341 96.2942 84.4513 96.6008 84.4513 96.9455V101.778H83.278ZM92.2865 94.1415V95.1358H88.3291V94.1415H92.2865ZM89.4825 92.312H90.6558V99.5904C90.6558 99.9218 90.7039 100.17 90.8 100.336C90.8994 100.499 91.0254 100.608 91.1778 100.664C91.3336 100.717 91.4977 100.744 91.67 100.744C91.7993 100.744 91.9053 100.737 91.9882 100.724C92.0711 100.707 92.1373 100.694 92.1871 100.684L92.4257 101.738C92.3461 101.768 92.2351 101.798 92.0926 101.828C91.9501 101.861 91.7694 101.877 91.5507 101.877C91.2193 101.877 90.8944 101.806 90.5763 101.664C90.2614 101.521 89.9996 101.304 89.7907 101.012C89.5853 100.721 89.4825 100.353 89.4825 99.9086V92.312ZM101.31 94.1415V95.1358H97.3525V94.1415H101.31ZM98.5059 92.312H99.6792V99.5904C99.6792 99.9218 99.7273 100.17 99.8234 100.336C99.9229 100.499 100.049 100.608 100.201 100.664C100.357 100.717 100.521 100.744 100.693 100.744C100.823 100.744 100.929 100.737 101.012 100.724C101.094 100.707 101.161 100.694 101.21 100.684L101.449 101.738C101.37 101.768 101.259 101.798 101.116 101.828C100.974 101.861 100.793 101.877 100.574 101.877C100.243 101.877 99.9179 101.806 99.5997 101.664C99.2848 101.521 99.023 101.304 98.8142 101.012C98.6087 100.721 98.5059 100.353 98.5059 99.9086V92.312ZM106.095 101.937C105.406 101.937 104.801 101.773 104.28 101.445C103.763 101.117 103.359 100.658 103.067 100.068C102.779 99.4777 102.635 98.7883 102.635 97.9995C102.635 97.204 102.779 96.5096 103.067 95.9164C103.359 95.3231 103.763 94.8624 104.28 94.5343C104.801 94.2061 105.406 94.0421 106.095 94.0421C106.784 94.0421 107.388 94.2061 107.905 94.5343C108.425 94.8624 108.829 95.3231 109.118 95.9164C109.409 96.5096 109.555 97.204 109.555 97.9995C109.555 98.7883 109.409 99.4777 109.118 100.068C108.829 100.658 108.425 101.117 107.905 101.445C107.388 101.773 106.784 101.937 106.095 101.937ZM106.095 100.883C106.619 100.883 107.05 100.749 107.388 100.48C107.726 100.212 107.976 99.8588 108.138 99.4213C108.301 98.9838 108.382 98.5099 108.382 97.9995C108.382 97.4891 108.301 97.0134 108.138 96.5726C107.976 96.1318 107.726 95.7755 107.388 95.5037C107.05 95.2319 106.619 95.0961 106.095 95.0961C105.571 95.0961 105.141 95.2319 104.802 95.5037C104.464 95.7755 104.214 96.1318 104.052 96.5726C103.889 97.0134 103.808 97.4891 103.808 97.9995C103.808 98.5099 103.889 98.9838 104.052 99.4213C104.214 99.8588 104.464 100.212 104.802 100.48C105.141 100.749 105.571 100.883 106.095 100.883ZM121.011 94.1415C120.951 93.6377 120.709 93.2466 120.285 92.9682C119.861 92.6898 119.341 92.5506 118.724 92.5506C118.273 92.5506 117.879 92.6235 117.541 92.7694C117.206 92.9152 116.944 93.1157 116.755 93.3709C116.57 93.6261 116.477 93.9161 116.477 94.2409C116.477 94.5127 116.542 94.7464 116.671 94.9419C116.803 95.1342 116.973 95.2949 117.178 95.4242C117.383 95.5501 117.599 95.6545 117.824 95.7374C118.05 95.8169 118.257 95.8816 118.446 95.9313L119.48 96.2097C119.745 96.2793 120.04 96.3754 120.365 96.498C120.693 96.6207 121.006 96.7881 121.304 97.0002C121.606 97.209 121.855 97.4775 122.05 97.8056C122.246 98.1337 122.343 98.5364 122.343 99.0137C122.343 99.5639 122.199 100.061 121.911 100.505C121.626 100.949 121.208 101.302 120.658 101.564C120.111 101.826 119.447 101.957 118.665 101.957C117.935 101.957 117.304 101.839 116.77 101.604C116.24 101.369 115.822 101.04 115.517 100.619C115.216 100.199 115.045 99.7097 115.005 99.1529H116.278C116.311 99.5373 116.441 99.8555 116.666 100.107C116.895 100.356 117.183 100.542 117.531 100.664C117.882 100.784 118.26 100.843 118.665 100.843C119.135 100.843 119.558 100.767 119.932 100.615C120.307 100.459 120.603 100.243 120.822 99.9682C121.041 99.6898 121.15 99.365 121.15 98.9938C121.15 98.6557 121.056 98.3806 120.867 98.1685C120.678 97.9564 120.429 97.784 120.121 97.6515C119.813 97.5189 119.48 97.4029 119.122 97.3034L117.869 96.9455C117.074 96.7168 116.444 96.3903 115.98 95.9661C115.516 95.5418 115.284 94.9867 115.284 94.3006C115.284 93.7305 115.438 93.2334 115.746 92.8091C116.058 92.3816 116.475 92.0501 116.999 91.8148C117.526 91.5762 118.114 91.4569 118.764 91.4569C119.42 91.4569 120.004 91.5745 120.514 91.8098C121.024 92.0418 121.429 92.36 121.727 92.7644C122.029 93.1687 122.188 93.6278 122.204 94.1415H121.011ZM127.413 101.937C126.677 101.937 126.043 101.775 125.509 101.45C124.979 101.122 124.57 100.664 124.281 100.078C123.996 99.4876 123.854 98.8016 123.854 98.0194C123.854 97.2372 123.996 96.5478 124.281 95.9512C124.57 95.3513 124.971 94.8839 125.484 94.5492C126.001 94.2111 126.605 94.0421 127.294 94.0421C127.692 94.0421 128.084 94.1084 128.472 94.2409C128.86 94.3735 129.213 94.589 129.531 94.8873C129.849 95.1822 130.103 95.5733 130.292 96.0605C130.481 96.5478 130.575 97.1477 130.575 97.8603V98.3574H124.689V97.3432H129.382C129.382 96.9123 129.296 96.5279 129.123 96.1898C128.954 95.8517 128.713 95.5849 128.398 95.3894C128.086 95.1938 127.718 95.0961 127.294 95.0961C126.827 95.0961 126.422 95.2121 126.081 95.4441C125.743 95.6728 125.483 95.9711 125.3 96.339C125.118 96.7069 125.027 97.1013 125.027 97.5222V98.1983C125.027 98.775 125.126 99.2639 125.325 99.665C125.527 100.063 125.807 100.366 126.165 100.575C126.523 100.78 126.939 100.883 127.413 100.883C127.722 100.883 128 100.84 128.248 100.754C128.5 100.664 128.717 100.532 128.9 100.356C129.082 100.177 129.223 99.955 129.322 99.6898L130.456 100.008C130.337 100.392 130.136 100.731 129.854 101.022C129.573 101.311 129.225 101.536 128.81 101.698C128.396 101.857 127.93 101.937 127.413 101.937ZM134.607 101.957C134.123 101.957 133.684 101.866 133.29 101.683C132.895 101.498 132.582 101.231 132.35 100.883C132.118 100.532 132.002 100.107 132.002 99.6103C132.002 99.1728 132.088 98.8181 132.261 98.5463C132.433 98.2712 132.663 98.0558 132.952 97.9C133.24 97.7443 133.558 97.6283 133.906 97.552C134.257 97.4725 134.61 97.4095 134.965 97.3631C135.429 97.3034 135.805 97.2587 136.094 97.2289C136.385 97.1957 136.597 97.141 136.73 97.0648C136.866 96.9886 136.934 96.856 136.934 96.6671V96.6273C136.934 96.1368 136.8 95.7556 136.531 95.4838C136.266 95.2121 135.863 95.0762 135.323 95.0762C134.763 95.0762 134.324 95.1988 134.006 95.4441C133.687 95.6893 133.464 95.9512 133.334 96.2296L132.221 95.8319C132.42 95.3678 132.685 95.0066 133.016 94.748C133.351 94.4862 133.716 94.3039 134.11 94.2012C134.508 94.0951 134.899 94.0421 135.283 94.0421C135.529 94.0421 135.81 94.0719 136.128 94.1316C136.45 94.1879 136.76 94.3056 137.058 94.4846C137.36 94.6635 137.61 94.9337 137.809 95.2949C138.008 95.6562 138.107 96.1401 138.107 96.7466V101.778H136.934V100.744H136.874C136.795 100.91 136.662 101.087 136.476 101.276C136.291 101.465 136.044 101.625 135.736 101.758C135.427 101.891 135.051 101.957 134.607 101.957ZM134.786 100.903C135.25 100.903 135.641 100.812 135.959 100.629C136.281 100.447 136.523 100.212 136.685 99.9235C136.851 99.6351 136.934 99.3319 136.934 99.0137V97.9398C136.884 97.9995 136.775 98.0542 136.606 98.1039C136.44 98.1503 136.248 98.1917 136.029 98.2282C135.814 98.2613 135.603 98.2911 135.398 98.3177C135.195 98.3409 135.031 98.3607 134.905 98.3773C134.601 98.4171 134.315 98.4817 134.05 98.5712C133.789 98.6574 133.576 98.7883 133.414 98.964C133.255 99.1363 133.175 99.3716 133.175 99.6699C133.175 100.078 133.326 100.386 133.628 100.595C133.933 100.8 134.319 100.903 134.786 100.903ZM140.249 101.778V94.1415H141.382V95.3347H141.482C141.641 94.927 141.898 94.6105 142.252 94.3851C142.607 94.1564 143.033 94.0421 143.53 94.0421C144.034 94.0421 144.453 94.1564 144.788 94.3851C145.126 94.6105 145.389 94.927 145.578 95.3347H145.658C145.853 94.9403 146.147 94.6271 146.538 94.3951C146.929 94.1597 147.398 94.0421 147.945 94.0421C148.627 94.0421 149.186 94.2559 149.62 94.6834C150.054 95.1077 150.271 95.7689 150.271 96.6671V101.778H149.098V96.6671C149.098 96.1036 148.944 95.7009 148.636 95.459C148.328 95.217 147.965 95.0961 147.547 95.0961C147.01 95.0961 146.594 95.2585 146.299 95.5833C146.004 95.9048 145.857 96.3124 145.857 96.8063V101.778H144.663V96.5478C144.663 96.1136 144.523 95.7639 144.241 95.4988C143.959 95.2303 143.596 95.0961 143.152 95.0961C142.847 95.0961 142.562 95.1773 142.297 95.3397C142.035 95.5021 141.823 95.7275 141.661 96.0158C141.502 96.3008 141.422 96.6306 141.422 97.0052V101.778H140.249ZM153.59 91.5961V101.778H152.417V91.5961H153.59ZM158.941 101.937C158.205 101.937 157.57 101.775 157.036 101.45C156.506 101.122 156.097 100.664 155.809 100.078C155.523 99.4876 155.381 98.8016 155.381 98.0194C155.381 97.2372 155.523 96.5478 155.809 95.9512C156.097 95.3513 156.498 94.8839 157.012 94.5492C157.529 94.2111 158.132 94.0421 158.821 94.0421C159.219 94.0421 159.612 94.1084 160 94.2409C160.387 94.3735 160.74 94.589 161.059 94.8873C161.377 95.1822 161.63 95.5733 161.819 96.0605C162.008 96.5478 162.103 97.1477 162.103 97.8603V98.3574H156.216V97.3432H160.909C160.909 96.9123 160.823 96.5279 160.651 96.1898C160.482 95.8517 160.24 95.5849 159.925 95.3894C159.613 95.1938 159.246 95.0961 158.821 95.0961C158.354 95.0961 157.95 95.2121 157.608 95.4441C157.27 95.6728 157.01 95.9711 156.828 96.339C156.645 96.7069 156.554 97.1013 156.554 97.5222V98.1983C156.554 98.775 156.654 99.2639 156.853 99.665C157.055 100.063 157.335 100.366 157.693 100.575C158.051 100.78 158.467 100.883 158.941 100.883C159.249 100.883 159.527 100.84 159.776 100.754C160.028 100.664 160.245 100.532 160.427 100.356C160.609 100.177 160.75 99.955 160.85 99.6898L161.983 100.008C161.864 100.392 161.663 100.731 161.382 101.022C161.1 101.311 160.752 101.536 160.338 101.698C159.923 101.857 159.458 101.937 158.941 101.937ZM169.296 95.8517L168.242 96.15C168.176 95.9744 168.078 95.8037 167.949 95.638C167.823 95.4689 167.651 95.3297 167.432 95.2203C167.213 95.111 166.933 95.0563 166.592 95.0563C166.125 95.0563 165.735 95.164 165.424 95.3794C165.115 95.5916 164.961 95.8617 164.961 96.1898C164.961 96.4815 165.067 96.7118 165.279 96.8809C165.492 97.0499 165.823 97.1908 166.274 97.3034L167.407 97.5819C168.09 97.7476 168.599 98.0011 168.934 98.3425C169.268 98.6806 169.436 99.1164 169.436 99.65C169.436 100.088 169.31 100.479 169.058 100.823C168.809 101.168 168.461 101.44 168.014 101.639C167.566 101.838 167.046 101.937 166.453 101.937C165.674 101.937 165.029 101.768 164.519 101.43C164.008 101.092 163.685 100.598 163.549 99.9483L164.663 99.6699C164.769 100.081 164.969 100.389 165.264 100.595C165.563 100.8 165.952 100.903 166.433 100.903C166.98 100.903 167.414 100.787 167.735 100.555C168.06 100.32 168.223 100.038 168.223 99.7097C168.223 99.4445 168.13 99.2225 167.944 99.0435C167.759 98.8612 167.474 98.7253 167.089 98.6358L165.816 98.3375C165.117 98.1718 164.603 97.915 164.275 97.5669C163.95 97.2156 163.788 96.7765 163.788 96.2495C163.788 95.8186 163.909 95.4374 164.151 95.106C164.396 94.7746 164.729 94.5144 165.15 94.3255C165.574 94.1365 166.055 94.0421 166.592 94.0421C167.348 94.0421 167.941 94.2078 168.372 94.5392C168.806 94.8707 169.114 95.3082 169.296 95.8517ZM176.611 95.8517L175.557 96.15C175.491 95.9744 175.393 95.8037 175.264 95.638C175.138 95.4689 174.965 95.3297 174.747 95.2203C174.528 95.111 174.248 95.0563 173.906 95.0563C173.439 95.0563 173.05 95.164 172.738 95.3794C172.43 95.5916 172.276 95.8617 172.276 96.1898C172.276 96.4815 172.382 96.7118 172.594 96.8809C172.806 97.0499 173.137 97.1908 173.588 97.3034L174.722 97.5819C175.404 97.7476 175.913 98.0011 176.248 98.3425C176.583 98.6806 176.75 99.1164 176.75 99.65C176.75 100.088 176.624 100.479 176.372 100.823C176.124 101.168 175.776 101.44 175.328 101.639C174.881 101.838 174.36 101.937 173.767 101.937C172.988 101.937 172.344 101.768 171.833 101.43C171.323 101.092 171 100.598 170.864 99.9483L171.977 99.6699C172.083 100.081 172.284 100.389 172.579 100.595C172.877 100.8 173.267 100.903 173.747 100.903C174.294 100.903 174.728 100.787 175.05 100.555C175.375 100.32 175.537 100.038 175.537 99.7097C175.537 99.4445 175.444 99.2225 175.259 99.0435C175.073 98.8612 174.788 98.7253 174.403 98.6358L173.131 98.3375C172.431 98.1718 171.918 97.915 171.59 97.5669C171.265 97.2156 171.102 96.7765 171.102 96.2495C171.102 95.8186 171.223 95.4374 171.465 95.106C171.711 94.7746 172.044 94.5144 172.465 94.3255C172.889 94.1365 173.369 94.0421 173.906 94.0421C174.662 94.0421 175.255 94.2078 175.686 94.5392C176.12 94.8707 176.429 95.3082 176.611 95.8517ZM183.03 101.778H181.738L185.476 91.5961H186.749L190.488 101.778H189.195L186.153 93.2069H186.073L183.03 101.778ZM183.508 97.8006H188.718V98.8944H183.508V97.8006ZM194.798 101.937C194.162 101.937 193.6 101.776 193.113 101.455C192.626 101.13 192.244 100.673 191.969 100.083C191.694 99.4893 191.557 98.7883 191.557 97.9796C191.557 97.1775 191.694 96.4815 191.969 95.8915C192.244 95.3016 192.627 94.8458 193.118 94.5243C193.608 94.2028 194.175 94.0421 194.818 94.0421C195.315 94.0421 195.708 94.1249 195.996 94.2907C196.288 94.4531 196.51 94.6387 196.663 94.8475C196.818 95.053 196.939 95.222 197.025 95.3546H197.125V91.5961H198.298V101.778H197.165V100.605H197.025C196.939 100.744 196.817 100.919 196.658 101.132C196.498 101.34 196.271 101.528 195.976 101.693C195.681 101.856 195.289 101.937 194.798 101.937ZM194.957 100.883C195.428 100.883 195.826 100.76 196.15 100.515C196.475 100.267 196.722 99.9235 196.891 99.486C197.06 99.0452 197.145 98.5364 197.145 97.9597C197.145 97.3896 197.062 96.8908 196.896 96.4632C196.73 96.0324 196.485 95.6976 196.16 95.459C195.836 95.217 195.435 95.0961 194.957 95.0961C194.46 95.0961 194.046 95.2237 193.714 95.4789C193.386 95.7308 193.139 96.0738 192.974 96.508C192.811 96.9389 192.73 97.4228 192.73 97.9597C192.73 98.5033 192.813 98.9971 192.979 99.4412C193.148 99.882 193.396 100.233 193.724 100.495C194.056 100.754 194.467 100.883 194.957 100.883ZM206.854 94.1415L204.03 101.778H202.837L200.013 94.1415H201.286L203.394 100.227H203.474L205.582 94.1415H206.854ZM211.331 101.937C210.595 101.937 209.961 101.775 209.427 101.45C208.897 101.122 208.487 100.664 208.199 100.078C207.914 99.4876 207.772 98.8016 207.772 98.0194C207.772 97.2372 207.914 96.5478 208.199 95.9512C208.487 95.3513 208.889 94.8839 209.402 94.5492C209.919 94.2111 210.523 94.0421 211.212 94.0421C211.61 94.0421 212.002 94.1084 212.39 94.2409C212.778 94.3735 213.131 94.589 213.449 94.8873C213.767 95.1822 214.021 95.5733 214.21 96.0605C214.399 96.5478 214.493 97.1477 214.493 97.8603V98.3574H208.607V97.3432H213.3C213.3 96.9123 213.214 96.5279 213.041 96.1898C212.872 95.8517 212.63 95.5849 212.316 95.3894C212.004 95.1938 211.636 95.0961 211.212 95.0961C210.745 95.0961 210.34 95.2121 209.999 95.4441C209.661 95.6728 209.401 95.9711 209.218 96.339C209.036 96.7069 208.945 97.1013 208.945 97.5222V98.1983C208.945 98.775 209.044 99.2639 209.243 99.665C209.445 100.063 209.725 100.366 210.083 100.575C210.441 100.78 210.857 100.883 211.331 100.883C211.639 100.883 211.918 100.84 212.166 100.754C212.418 100.664 212.635 100.532 212.818 100.356C213 100.177 213.141 99.955 213.24 99.6898L214.374 100.008C214.255 100.392 214.054 100.731 213.772 101.022C213.491 101.311 213.143 101.536 212.728 101.698C212.314 101.857 211.848 101.937 211.331 101.937ZM217.451 97.1841V101.778H216.278V94.1415H217.411V95.3347H217.511C217.69 94.9469 217.962 94.6354 218.326 94.4C218.691 94.1614 219.161 94.0421 219.738 94.0421C220.255 94.0421 220.708 94.1481 221.095 94.3603C221.483 94.5691 221.785 94.8873 222 95.3148C222.216 95.7391 222.323 96.276 222.323 96.9256V101.778H221.15V97.0052C221.15 96.4052 220.994 95.9379 220.683 95.6032C220.371 95.2651 219.944 95.0961 219.4 95.0961C219.026 95.0961 218.691 95.1773 218.396 95.3397C218.104 95.5021 217.874 95.7391 217.705 96.0506C217.536 96.3622 217.451 96.74 217.451 97.1841ZM227.788 94.1415V95.1358H223.831V94.1415H227.788ZM224.984 92.312H226.158V99.5904C226.158 99.9218 226.206 100.17 226.302 100.336C226.401 100.499 226.527 100.608 226.68 100.664C226.836 100.717 227 100.744 227.172 100.744C227.301 100.744 227.407 100.737 227.49 100.724C227.573 100.707 227.639 100.694 227.689 100.684L227.928 101.738C227.848 101.768 227.737 101.798 227.595 101.828C227.452 101.861 227.271 101.877 227.053 101.877C226.721 101.877 226.396 101.806 226.078 101.664C225.763 101.521 225.502 101.304 225.293 101.012C225.087 100.721 224.984 100.353 224.984 99.9086V92.312ZM234.366 98.6557V94.1415H235.539V101.778H234.366V100.485H234.286C234.107 100.873 233.829 101.203 233.451 101.475C233.073 101.743 232.596 101.877 232.019 101.877C231.542 101.877 231.118 101.773 230.747 101.564C230.375 101.352 230.084 101.034 229.872 100.61C229.659 100.182 229.553 99.6434 229.553 98.9938V94.1415H230.727V98.9142C230.727 99.4711 230.882 99.9152 231.194 100.247C231.509 100.578 231.91 100.744 232.397 100.744C232.689 100.744 232.985 100.669 233.287 100.52C233.592 100.371 233.847 100.142 234.053 99.834C234.261 99.5257 234.366 99.133 234.366 98.6557ZM237.688 101.778V94.1415H238.822V95.2949H238.901C239.04 94.9171 239.292 94.6105 239.657 94.3752C240.021 94.1399 240.432 94.0222 240.89 94.0222C240.976 94.0222 241.084 94.0239 241.213 94.0272C241.342 94.0305 241.44 94.0355 241.506 94.0421V95.2353C241.467 95.2253 241.375 95.2104 241.233 95.1905C241.094 95.1673 240.946 95.1557 240.79 95.1557C240.419 95.1557 240.088 95.2336 239.796 95.3894C239.508 95.5418 239.279 95.754 239.11 96.0257C238.944 96.2942 238.861 96.6008 238.861 96.9455V101.778H237.688ZM245.866 101.937C245.131 101.937 244.496 101.775 243.962 101.45C243.432 101.122 243.023 100.664 242.734 100.078C242.449 99.4876 242.307 98.8016 242.307 98.0194C242.307 97.2372 242.449 96.5478 242.734 95.9512C243.023 95.3513 243.424 94.8839 243.937 94.5492C244.454 94.2111 245.058 94.0421 245.747 94.0421C246.145 94.0421 246.538 94.1084 246.925 94.2409C247.313 94.3735 247.666 94.589 247.984 94.8873C248.302 95.1822 248.556 95.5733 248.745 96.0605C248.934 96.5478 249.028 97.1477 249.028 97.8603V98.3574H243.142V97.3432H247.835C247.835 96.9123 247.749 96.5279 247.577 96.1898C247.408 95.8517 247.166 95.5849 246.851 95.3894C246.539 95.1938 246.171 95.0961 245.747 95.0961C245.28 95.0961 244.875 95.2121 244.534 95.4441C244.196 95.6728 243.936 95.9711 243.753 96.339C243.571 96.7069 243.48 97.1013 243.48 97.5222V98.1983C243.48 98.775 243.579 99.2639 243.778 99.665C243.98 100.063 244.261 100.366 244.619 100.575C244.976 100.78 245.392 100.883 245.866 100.883C246.175 100.883 246.453 100.84 246.702 100.754C246.954 100.664 247.171 100.532 247.353 100.356C247.535 100.177 247.676 99.955 247.775 99.6898L248.909 100.008C248.79 100.392 248.589 100.731 248.307 101.022C248.026 101.311 247.678 101.536 247.263 101.698C246.849 101.857 246.383 101.937 245.866 101.937ZM256.222 95.8517L255.168 96.15C255.102 95.9744 255.004 95.8037 254.875 95.638C254.749 95.4689 254.577 95.3297 254.358 95.2203C254.139 95.111 253.859 95.0563 253.518 95.0563C253.05 95.0563 252.661 95.164 252.349 95.3794C252.041 95.5916 251.887 95.8617 251.887 96.1898C251.887 96.4815 251.993 96.7118 252.205 96.8809C252.417 97.0499 252.749 97.1908 253.199 97.3034L254.333 97.5819C255.016 97.7476 255.525 98.0011 255.859 98.3425C256.194 98.6806 256.361 99.1164 256.361 99.65C256.361 100.088 256.235 100.479 255.984 100.823C255.735 101.168 255.387 101.44 254.94 101.639C254.492 101.838 253.972 101.937 253.378 101.937C252.6 101.937 251.955 101.768 251.445 101.43C250.934 101.092 250.611 100.598 250.475 99.9483L251.589 99.6699C251.695 100.081 251.895 100.389 252.19 100.595C252.489 100.8 252.878 100.903 253.359 100.903C253.905 100.903 254.34 100.787 254.661 100.555C254.986 100.32 255.148 100.038 255.148 99.7097C255.148 99.4445 255.056 99.2225 254.87 99.0435C254.684 98.8612 254.399 98.7253 254.015 98.6358L252.742 98.3375C252.043 98.1718 251.529 97.915 251.201 97.5669C250.876 97.2156 250.714 96.7765 250.714 96.2495C250.714 95.8186 250.835 95.4374 251.077 95.106C251.322 94.7746 251.655 94.5144 252.076 94.3255C252.5 94.1365 252.981 94.0421 253.518 94.0421C254.273 94.0421 254.867 94.2078 255.297 94.5392C255.732 94.8707 256.04 95.3082 256.222 95.8517ZM259.679 91.5961L259.579 98.9142H258.426L258.326 91.5961H259.679ZM259.003 101.857C258.757 101.857 258.547 101.77 258.371 101.594C258.196 101.418 258.108 101.208 258.108 100.963C258.108 100.717 258.196 100.507 258.371 100.331C258.547 100.155 258.757 100.068 259.003 100.068C259.248 100.068 259.458 100.155 259.634 100.331C259.81 100.507 259.897 100.717 259.897 100.963C259.897 101.125 259.856 101.274 259.773 101.41C259.694 101.546 259.586 101.655 259.45 101.738C259.317 101.818 259.168 101.857 259.003 101.857Z" fill="white"/>
</svg>
