<svg width="234" height="80" viewBox="0 0 234 80" fill="none" xmlns="http://www.w3.org/2000/svg">
<path fill-rule="evenodd" clip-rule="evenodd" d="M193.53 0C192.149 0 191.03 1.11929 191.03 2.5C191.03 3.88071 192.149 5 193.53 5H193.88V10.854H185C180.582 10.854 177 14.4357 177 18.854V63.0028C177 67.4211 180.582 71.0028 185 71.0028H187.04V73.2304C187.04 74.6111 188.159 75.7304 189.54 75.7304C190.921 75.7304 192.04 74.6111 192.04 73.2304V71.0028H218.96V73.2304C218.96 74.6111 220.079 75.7304 221.46 75.7304C222.841 75.7304 223.96 74.6111 223.96 73.2304V71.0028H226C230.418 71.0028 234 67.4211 234 63.0028V18.854C234 14.4357 230.418 10.854 226 10.854H215.98V5H216.33C217.711 5 218.83 3.88071 218.83 2.5C218.83 1.11929 217.711 0 216.33 0H193.53ZM210.98 5H198.88V10.854H210.98V5Z" fill="white"/>
<path d="M2.60121 27.7002V21.0738H37.4165V27.7002H23.9293V64.7102H16.0884V27.7002H2.60121ZM40.3888 64.7102V31.9829H47.8675V37.4374H48.2085C48.805 35.5482 49.8278 34.0923 51.2766 33.0695C52.7397 32.0326 54.4087 31.5142 56.2837 31.5142C56.7099 31.5142 57.1857 31.5355 57.7113 31.5781C58.2511 31.6065 58.6985 31.6562 59.0536 31.7272V38.8224C58.7269 38.7088 58.2085 38.6093 57.4982 38.5241C56.8022 38.4247 56.1275 38.3749 55.4741 38.3749C54.0678 38.3749 52.8036 38.6803 51.6815 39.2911C50.5735 39.8877 49.6999 40.7187 49.0607 41.784C48.4215 42.8494 48.1019 44.0781 48.1019 45.4701V64.7102H40.3888ZM73.0096 65.3707C70.9357 65.3707 69.0678 65.0014 67.4059 64.2627C65.7582 63.5099 64.4513 62.4019 63.4854 60.9389C62.5337 59.4758 62.0579 57.6718 62.0579 55.5269C62.0579 53.6803 62.3988 52.1534 63.0806 50.946C63.7624 49.7386 64.6928 48.7727 65.8718 48.0482C67.0508 47.3238 68.3789 46.7769 69.8562 46.4076C71.3477 46.0241 72.8888 45.7471 74.4798 45.5767C76.3974 45.3778 77.9528 45.2002 79.146 45.044C80.3391 44.8735 81.2056 44.6178 81.7454 44.2769C82.2994 43.9218 82.5764 43.3749 82.5764 42.6363V42.5085C82.5764 40.9034 82.1005 39.6605 81.1488 38.7798C80.1971 37.8991 78.8263 37.4588 77.0366 37.4588C75.1474 37.4588 73.6488 37.8707 72.5408 38.6945C71.4471 39.5184 70.7085 40.4914 70.3249 41.6136L63.1232 40.5909C63.6914 38.6022 64.6289 36.9403 65.9357 35.6051C67.2425 34.2556 68.8406 33.2471 70.7298 32.5795C72.619 31.8977 74.707 31.5568 76.994 31.5568C78.5707 31.5568 80.1403 31.7414 81.7028 32.1107C83.2653 32.4801 84.6928 33.0909 85.9854 33.9431C87.2781 34.7812 88.315 35.9247 89.0962 37.3735C89.8917 38.8224 90.2894 40.6335 90.2894 42.8068V64.7102H82.8746V60.2144H82.619C82.1502 61.1235 81.4897 61.9758 80.6374 62.7713C79.7994 63.5525 78.7411 64.1846 77.4627 64.6676C76.1985 65.1363 74.7141 65.3707 73.0096 65.3707ZM75.0124 59.7031C76.5607 59.7031 77.9031 59.3977 79.0394 58.7869C80.1758 58.1619 81.0494 57.338 81.6602 56.3153C82.2852 55.2926 82.5977 54.1775 82.5977 52.9701V49.1136C82.3562 49.3124 81.9442 49.4971 81.3619 49.6676C80.7937 49.838 80.1545 49.9872 79.4442 50.115C78.734 50.2428 78.0309 50.3565 77.3349 50.4559C76.6388 50.5553 76.0352 50.6406 75.5238 50.7116C74.3732 50.8678 73.3434 51.1235 72.4343 51.4786C71.5252 51.8338 70.8079 52.3309 70.2823 52.9701C69.7567 53.5951 69.494 54.4048 69.494 55.3991C69.494 56.8195 70.0124 57.892 71.0494 58.6164C72.0863 59.3409 73.4073 59.7031 75.0124 59.7031ZM126.106 31.9829L114.451 64.7102H105.929L94.2738 31.9829H102.498L110.02 56.294H110.36L117.903 31.9829H126.106ZM144.819 65.3494C141.538 65.3494 138.704 64.6676 136.317 63.3039C133.945 61.9261 132.12 59.9801 130.842 57.4659C129.563 54.9374 128.924 51.9616 128.924 48.5383C128.924 45.1718 129.563 42.2173 130.842 39.6747C132.134 37.1178 133.938 35.1292 136.254 33.7088C138.569 32.2741 141.289 31.5568 144.414 31.5568C146.431 31.5568 148.335 31.8835 150.124 32.5369C151.928 33.1761 153.519 34.1704 154.897 35.5198C156.289 36.8693 157.383 38.588 158.178 40.6761C158.974 42.7499 159.371 45.2215 159.371 48.0909V50.4559H132.546V45.257H151.978C151.964 43.7798 151.644 42.4659 151.019 41.3153C150.394 40.1505 149.521 39.2343 148.398 38.5667C147.29 37.8991 145.998 37.5653 144.521 37.5653C142.944 37.5653 141.559 37.9488 140.366 38.7159C139.173 39.4687 138.242 40.463 137.575 41.6988C136.921 42.9204 136.587 44.2627 136.573 45.7258V50.2642C136.573 52.1676 136.921 53.8011 137.617 55.1647C138.313 56.5142 139.286 57.5511 140.536 58.2755C141.786 58.9857 143.249 59.3409 144.925 59.3409C146.048 59.3409 147.063 59.1846 147.972 58.8721C148.881 58.5454 149.67 58.0695 150.337 57.4445C151.005 56.8195 151.509 56.0454 151.85 55.1221L159.052 55.9318C158.597 57.8352 157.731 59.4971 156.452 60.9176C155.188 62.3238 153.569 63.4176 151.594 64.1988C149.62 64.9659 147.362 65.3494 144.819 65.3494ZM173.61 21.0738V64.7102H165.897V21.0738H173.61Z" fill="white"/>
<path d="M181.541 64.7102V31.9829H189.254V64.7102H181.541ZM185.419 27.338C184.197 27.338 183.146 26.9332 182.266 26.1235C181.385 25.2997 180.945 24.3124 180.945 23.1619C180.945 21.9971 181.385 21.0099 182.266 20.2002C183.146 19.3764 184.197 18.9644 185.419 18.9644C186.655 18.9644 187.706 19.3764 188.572 20.2002C189.453 21.0099 189.893 21.9971 189.893 23.1619C189.893 24.3124 189.453 25.2997 188.572 26.1235C187.706 26.9332 186.655 27.338 185.419 27.338ZM204.899 45.534V64.7102H197.186V31.9829H204.558V37.544H204.941C205.694 35.7116 206.895 34.2556 208.542 33.1761C210.204 32.0965 212.257 31.5568 214.7 31.5568C216.958 31.5568 218.926 32.0397 220.602 33.0056C222.292 33.9715 223.599 35.3707 224.522 37.2031C225.46 39.0355 225.922 41.2585 225.907 43.8721V64.7102H218.194V45.0653C218.194 42.8778 217.626 41.1661 216.49 39.9303C215.368 38.6945 213.812 38.0767 211.824 38.0767C210.474 38.0767 209.274 38.3749 208.223 38.9715C207.186 39.5539 206.369 40.3991 205.772 41.507C205.19 42.615 204.899 43.9573 204.899 45.534Z" fill="#336749"/>
</svg>
